<?xml version="1.0" encoding="utf-8"?>
<!-- Generator: Adobe Illustrator 16.0.0, SVG Export Plug-In . SVG Version: 6.00 Build 0)  -->
<!DOCTYPE svg PUBLIC "-//W3C//DTD SVG 1.1//EN" "http://www.w3.org/Graphics/SVG/1.1/DTD/svg11.dtd">
<svg version="1.1" id="Camada_1" xmlns="http://www.w3.org/2000/svg" xmlns:xlink="http://www.w3.org/1999/xlink" x="0px" y="0px"
	 width="1644.09px" height="850.39px" viewBox="0 0 1644.09 850.39" enable-background="new 0 0 1644.09 850.39"
	 xml:space="preserve">
<g>
	<circle fill="#B15B27" stroke="#B15B27" stroke-width="17" stroke-miterlimit="10" cx="-272.999" cy="370.896" r="244.5"/>
	<circle fill="#D98451" cx="-273" cy="370.896" r="75.651"/>
	<g>
		<g>
			<g>
				<path fill="#D98451" d="M-147.872,482.529l3.534-4.451c1.191-1.467,2.23-3.057,3.359-4.566c2.289-2.996,4.279-6.199,6.373-9.303
					c3.968-6.359,7.752-12.777,10.92-19.443c6.588-13.199,11.339-26.967,14.709-40.588c6.618-27.319,6.96-54.134,3.754-76.878
					c-0.214-1.423-0.425-2.831-0.634-4.224c-0.214-1.396-0.366-2.793-0.66-4.141c-0.544-2.706-0.968-5.395-1.521-7.985
					c-0.598-2.577-1.159-5.107-1.69-7.587c-0.657-2.434-1.278-4.816-1.864-7.147c-0.269-1.176-0.623-2.298-0.957-3.411
					c-0.328-1.119-0.649-2.22-0.966-3.301c-0.309-1.092-0.611-2.165-0.908-3.217c-0.341-1.038-0.675-2.057-1.002-3.055
					c-0.632-2.029-1.238-3.976-1.817-5.838c-0.649-1.836-1.25-3.612-1.801-5.321c-1.037-3.458-2.169-6.473-2.969-9.254
					c-0.418-1.379-0.739-2.711-1.07-3.916c-0.342-1.197-0.619-2.319-0.829-3.358c-0.839-4.158-0.604-7.016,0.929-8.208
					c1.534-1.193,4.282-0.64,8.156,1.594c0.969,0.559,2.007,1.222,3.113,1.988c1.095,0.774,2.186,1.704,3.374,2.712
					c2.344,2.04,5.032,4.437,7.639,7.436c1.335,1.479,2.721,3.063,4.155,4.749c1.365,1.726,2.74,3.575,4.175,5.517
					c0.711,0.978,1.436,1.975,2.175,2.992c0.68,1.055,1.371,2.129,2.076,3.223c0.695,1.105,1.404,2.23,2.125,3.375
					c0.718,1.149,1.456,2.319,2.104,3.555c1.346,2.45,2.718,5.001,4.112,7.648c1.269,2.694,2.553,5.487,3.854,8.374
					c1.258,2.9,2.367,5.946,3.572,9.054c0.624,1.549,1.101,3.16,1.633,4.778c0.517,1.626,1.039,3.27,1.566,4.93
					c3.989,13.356,6.744,28.407,7.358,44.503c0.056,2.014,0.112,4.04,0.17,6.079l0.036,1.534l-0.031,1.537
					c-0.023,1.027-0.048,2.057-0.072,3.091c-0.063,2.066-0.084,4.15-0.203,6.24c-0.162,2.088-0.326,4.188-0.49,6.298
					c-0.088,1.056-0.176,2.114-0.264,3.176c-0.136,1.057-0.271,2.115-0.406,3.177c-0.286,2.123-0.574,4.257-0.862,6.399
					c-0.327,2.138-0.768,4.268-1.159,6.416c-0.419,2.143-0.774,4.311-1.332,6.443c-3.958,17.164-10.278,34.447-19.326,50.568
					c-4.394,8.125-9.621,15.854-15.2,23.295c-2.899,3.646-5.739,7.336-8.91,10.756c-1.569,1.721-3.059,3.506-4.707,5.15
					l-4.926,4.934c-1.66,1.721-3.465,3.262-5.193,4.838c-1.755,1.551-3.43,3.146-5.201,4.6c-1.777,1.443-3.538,2.871-5.282,4.285
					c-0.878,0.697-1.725,1.42-2.616,2.082c-0.896,0.654-1.788,1.307-2.676,1.953c-1.774,1.289-3.532,2.566-5.273,3.832
					c-1.773,1.219-3.579,2.357-5.341,3.516c-0.884,0.574-1.764,1.146-2.64,1.715c-0.871,0.576-1.746,1.135-2.652,1.641
					c-1.79,1.039-3.563,2.068-5.323,3.092c-14.141,8.018-28.151,13.793-41.809,17.828c-13.658,4.051-26.941,6.455-39.898,7.604
					c-12.962,1.139-25.608,1.025-38.102-0.201c-12.493-1.232-24.842-3.582-37.183-7.15c-12.335-3.576-24.671-8.383-36.991-14.734
					c-12.31-6.355-24.608-14.268-36.619-24.174c-0.77-0.594-1.509-1.232-2.238-1.891c-0.735-0.65-1.474-1.303-2.215-1.959
					c-1.47-1.326-3.006-2.598-4.456-3.994c-1.441-1.404-2.896-2.82-4.364-4.252c-0.728-0.721-1.484-1.416-2.197-2.164
					c-0.704-0.756-1.412-1.518-2.122-2.279c-1.419-1.525-2.853-3.064-4.299-4.619c-1.369-1.621-2.75-3.258-4.146-4.912
					c-0.697-0.826-1.398-1.654-2.102-2.488c-0.663-0.865-1.328-1.736-1.998-2.613c-1.336-1.748-2.686-3.516-4.049-5.301
					c1.478,1.689,2.942,3.359,4.391,5.018c0.725,0.824,1.445,1.645,2.163,2.461c0.758,0.781,1.512,1.557,2.263,2.33
					c1.5,1.539,2.985,3.064,4.456,4.576c1.545,1.434,3.075,2.854,4.591,4.258c0.757,0.701,1.511,1.396,2.262,2.092
					c0.758,0.686,1.56,1.316,2.331,1.971c1.554,1.295,3.093,2.576,4.618,3.848c1.531,1.26,3.146,2.389,4.69,3.57
					c0.779,0.582,1.553,1.162,2.325,1.738c0.765,0.586,1.539,1.15,2.343,1.668c12.556,8.699,25.175,15.213,37.562,20.07
					c12.396,4.85,24.568,8.049,36.478,9.982c11.915,1.93,23.576,2.594,35.082,2.178c11.506-0.424,22.864-1.93,34.183-4.559
					c11.313-2.635,22.595-6.395,33.848-11.508c11.255-5.098,22.453-11.637,33.413-19.9c1.359-1.043,2.73-2.098,4.114-3.156
					c0.7-0.516,1.371-1.078,2.035-1.656c0.669-0.57,1.341-1.143,2.017-1.717c1.343-1.156,2.724-2.281,4.067-3.479
					c1.311-1.232,2.633-2.477,3.967-3.73c0.667-0.623,1.337-1.25,2.01-1.881c0.668-0.635,1.289-1.326,1.939-1.988
					c1.289-1.334,2.591-2.682,3.904-4.043c1.308-1.361,2.511-2.85,3.79-4.281C-150.371,485.507-149.045,484.099-147.872,482.529z"/>
			</g>
		</g>
	</g>
	<g>
		<g>
			<path fill="#FFFFFF" d="M-49.999,370.896c-0.133,44.561-13.395,87.779-38.152,124.816c-23.994,35.896-58.748,63.791-98.283,80.85
				c-40.696,17.559-87.375,21.691-130.697,12.992c-42.746-8.584-82.125-29.891-113.088-60.51
				c-31-30.656-52.091-70.109-61.161-112.683c-9.386-44.053-4.386-90.43,12.692-131.966c16.154-39.291,44.831-73.672,79.784-97.61
				c36.637-25.091,80.139-38.489,124.492-38.884c44.485-0.396,88.073,12.944,125.136,37.417
				c36.032,23.792,64.129,58.352,81.415,97.793C-55.797,310.635-50.087,340.928-49.999,370.896c0.038,12.896,20.038,12.898,20,0
				c-0.273-92.129-53.723-178.141-136.677-218.532c-41.854-20.379-89.348-28.296-135.55-22.652
				c-45.858,5.601-88.689,24.143-124.594,53.125c-72.507,58.526-104.005,156.687-82.034,246.776
				c21.616,88.629,94.85,159.184,183.744,178.668c45.601,9.996,94.069,6.555,137.736-9.945
				c42.452-16.041,79.581-43.844,107.26-79.754c32.5-42.162,49.957-94.508,50.115-147.685C-29.96,357.997-49.96,358-49.999,370.896z
				"/>
		</g>
	</g>
	<g>
		<circle opacity="0.3" fill="#FDDFC0" enable-background="new    " cx="-289.432" cy="357.962" r="45.73"/>
	</g>
	<g>
		<g>
			<g>
				<path fill="#FFFFFF" d="M-117.997,444.693c0-4.496,0-8.992,0-13.488c-3.333,3.334-6.667,6.668-10,10
					c7.421,0.873,15.214-1.471,21.896-4.434c15.015-6.654,23.582-22.488,26.889-37.854c2.882-13.392,2.213-27.209,2.213-40.81
					c0-10.192,0-20.385,0-30.576c0-6.103,0-12.205,0-18.308c0-0.023,0-0.049,0-0.072c0-12.897-20-12.897-20,0
					c0,4.327,0,8.655,0,12.984c0,21.036,1.178,42.433-0.359,63.402c-0.344,4.701-1.276,9.305-2.586,13.833
					c-1.271,4.395-1.839,5.609-4.215,9.597c-0.449,0.753-0.945,1.479-1.441,2.201c-1.585,2.312,1.26-1.48-0.459,0.612
					c-0.982,1.195-2.076,2.297-3.204,3.354c-0.531,0.499-1.094,0.963-1.655,1.428c2.019-1.666,0.217-0.202-0.217,0.099
					c-1.079,0.75-2.223,1.404-3.382,2.021c-0.549,0.292-1.113,0.556-1.678,0.817c-1.991,0.925,2.188-0.865,0.188-0.1
					c-1.038,0.396-2.104,0.72-3.175,1.017c-0.971,0.27-1.958,0.479-2.948,0.665c-3.139,0.593,1.898-0.167-0.387,0.065
					c-1.799,0.183-3.678,0.268-5.48,0.056c-5.427-0.637-10,5.032-10,10c0,4.496,0,8.992,0,13.488
					C-137.997,457.591-117.997,457.591-117.997,444.693L-117.997,444.693z"/>
			</g>
		</g>
		<g>
			<g>
				<path fill="#FFFFFF" d="M-117.997,550.695c0-39.83,0-79.66,0-119.49c0-4.969-4.573-10.636-10-10
					c-1.68,0.197-3.408,0.113-5.087-0.021c-2.989-0.236,2.188,0.388-0.316-0.02c-0.977-0.159-1.942-0.376-2.902-0.613
					c-1.063-0.262-2.107-0.596-3.143-0.954c-0.6-0.207-2.55-1.014,0.202,0.148c-0.566-0.239-1.119-0.508-1.672-0.777
					c-1.168-0.567-2.284-1.234-3.379-1.933c-0.578-0.368-1.133-0.771-1.687-1.173c2.149,1.561,0.19,0.103-0.2-0.234
					c-1.157-0.997-2.213-2.105-3.23-3.241c-0.232-0.259-1.864-2.366-0.485-0.528c-0.519-0.69-0.991-1.414-1.464-2.137
					c-2.52-3.847-3.101-5.468-4.355-9.279c-1.435-4.356-2.326-8.911-2.792-13.461c-1.328-12.998-0.485-26.361-0.485-39.415
					c0-8.245,0-16.489,0-24.734c0-4.562,0-9.122,0-13.683c0-12.897-20-12.897-20,0c0,4.801,0,9.603,0,14.403
					c0,8.952,0,17.903,0,26.854c0,13.519-0.809,27.294,0.972,40.726c2.327,17.553,9.398,34.913,25.325,44.206
					c7.082,4.133,16.202,6.574,24.448,5.891c0.084-0.008,0.168-0.016,0.251-0.025c-3.333-3.332-6.667-6.666-10-10
					c0,39.83,0,79.66,0,119.49C-137.997,563.591-117.997,563.591-117.997,550.695L-117.997,550.695z"/>
			</g>
		</g>
		<g>
			<g>
				<path fill="#FFFFFF" d="M-137.997,306.809c0,19.371,0,38.742,0,58.113c0,12.897,20,12.897,20,0c0-19.371,0-38.742,0-58.113
					C-117.997,293.912-137.997,293.912-137.997,306.809L-137.997,306.809z"/>
			</g>
		</g>
	</g>
	<g>
		<g>
			<path fill="#FFFFFF" d="M-198.575,593.796c0-46.482,0-92.965,0-139.447c0-5.049-2.692-8.266-6.591-11.1
				c-0.398-0.289-0.792-0.584-1.186-0.879c-1.688-1.266,1.905,1.496,0.041,0.035c-1.248-0.977-2.468-1.988-3.679-3.01
				c-3.396-2.865-6.613-5.936-9.687-9.145c-6.389-6.67-12.042-14.466-14.745-23.154c-1.146-3.686-1.397-6.289-1.229-10.209
				c0.05-1.165,0.155-2.328,0.268-3.487c0.063-0.645,0.14-1.287,0.215-1.931c0.202-1.708-0.318,2.144,0.114-0.813
				c4.926-33.66,15.669-66.859,25.396-99.368c3.479-11.629,7.025-23.242,10.725-34.803c-6.547-0.886-13.095-1.772-19.643-2.658
				c0,46.773,0,93.549,0,140.323c0,0.582,0,1.163,0,1.745c0,12.896,20,12.896,20,0c0-46.774,0-93.55,0-140.323
				c0-0.582,0-1.163,0-1.745c0-11.55-16.245-13.275-19.643-2.658c-7.505,23.452-14.537,47.071-21.143,70.792
				c-4.724,16.96-9.259,34.01-12.798,51.262c-1.41,6.871-2.604,13.812-3.283,20.796c-0.904,9.303,1.233,18.023,4.866,26.538
				c7.091,16.625,22.141,31.096,36.953,41.124c-1.651-2.877-3.302-5.756-4.953-8.635c0,46.482,0,92.965,0,139.447
				c0,0.434,0,0.869,0,1.303C-218.575,606.693-198.575,606.693-198.575,593.796L-198.575,593.796z"/>
		</g>
	</g>
	<circle fill="#D98451" cx="-389.136" cy="267.271" r="50.974"/>
	<circle fill="#FFFFFF" cx="-308.362" cy="342.032" r="15.93"/>
</g>
<g id="logotipo_negativo.PSD">
	
		<image overflow="visible" width="5124" height="1495" id="logotipo_negativo_2_" xlink:href="E39270A9.png"  transform="matrix(0.24 0 0 0.24 243.395 220.5454)">
	</image>
</g>
</svg>
