<?xml version="1.0" encoding="utf-8"?>
<!-- Generator: Adobe Illustrator 16.0.0, SVG Export Plug-In . SVG Version: 6.00 Build 0)  -->
<!DOCTYPE svg PUBLIC "-//W3C//DTD SVG 1.1//EN" "http://www.w3.org/Graphics/SVG/1.1/DTD/svg11.dtd">
<svg version="1.1" id="Layer_1" xmlns="http://www.w3.org/2000/svg" xmlns:xlink="http://www.w3.org/1999/xlink" x="0px" y="0px"
	 width="5129px" height="1500px" viewBox="0 0 5129 1500" enable-background="new 0 0 5129 1500" xml:space="preserve">
<g transform="translate(0.000000,1500.000000) scale(0.100000,-0.100000)">
	<path fill="#FFFFFF" d="M31134.996,10877.998c-257-28.994-470.996-122.998-620-272.998c-120-120.996-184.004-260.996-205-449.004
		c-30.996-271.992,65-488.994,263-600c282.996-157.998,857-135,1165,45c77,46.006,227.996,199.004,275,279.004
		c102,175,130,442.998,65,617.002c-43.996,120.996-142.004,235.996-247.004,292.002
		C31674.996,10872.002,31397,10907.998,31134.996,10877.998z"/>
	<path fill="#FFFFFF" d="M35414,10880c-955-67.002-1534.004-414.004-1883.008-1130C33374,9430,33299,9117.002,33242,8545
		l-27.004-270l-69.004-7.998c-165-17.998-290.996-67.998-386.992-154.004c-60-53.994-122-175.996-143.008-277.998
		c-35-172.002-71.992-734.004-51.992-795c18-57.002,33.996-60,303-60c132.996,0,243.992-2.998,245.996-7.998
		c2.996-4.004-3-102.002-13-217.002c-24.004-270-55-695.996-80-1100c-10.996-175.996-32-470.996-45.996-655
		c-37-469.004-27-707.998,36.992-910c69.004-215.996,214.004-342.002,449.004-390c128-25.996,432.004-42.998,665-37.002
		c197.004,5,229.004,11.006,263,47.002c39.004,42.002,42,75,122,1130c22.004,294.004,67.004,855,100,1245
		c32.004,390.996,62.004,752.002,65,802.998L34682,6980h578.992c318.008,0,579.004-2.002,579.004-4.004
		c0-22.998-77.996-1070.996-105-1400.996c-52-657.002-57.996-765-52-1017.998c7-310,35-432.002,129.004-572.998
		c80-119.004,190-198.008,355-254.004c135-45,255.992-59.004,547.996-65.996c280.996-7.002,390.996,1.992,434.004,33.994
		c55.996,40,53.992,24.004,165.996,1442.002c109.004,1380,155,2044.004,155,2240c0,467.002-150.996,722.998-495,835
		c-164.004,52.998-202.004,55-1234.004,55c-773.992,0-950.996,2.002-950.996,12.998c0,24.004,48,281.006,75,402.002
		c98,439.004,279.004,727.998,532.004,850.996c97,47.002,183.992,64.004,332.996,64.004c203,0,330-39.004,420-129.004
		c87.996-87.998,115.996-183.994,127.996-445.996c7.004-157.002,9.008-167.002,33-190c36.008-37.002,117-47.998,294.004-42.002
		c307.004,12.002,515,62.998,710,176.006c197.996,115,312.004,292.998,350,548.994c55,360-52.004,692.002-292.996,912.998
		c-253,231.006-648,378.008-1169.004,434.004C36032,10884.004,35589,10892.002,35414,10880z"/>
	<path fill="#FFFFFF" d="M6639.999,10844.004c-215-16.006-475-59.004-647.002-109.004C5240,10519.004,4799.004,9922.002,4655,8925
		c-9.004-60-27.998-230.996-42.998-380L4585,8275l-69.004-7.998C4352.002,8249.004,4225,8199.004,4131,8114.004
		C4076,8065,4017.998,7962.002,3995,7875c-22.002-87.002-42.998-257.998-55-460c-5-99.004-12.002-215.996-15-260
		c-5-92.998,8.998-144.004,45-162.002c17.998-8.994,91-12.998,262.002-12.998c130,0,238.994-4.004,242.002-7.998
		c1.992-4.004-22.002-365-54.004-802.002c-84.004-1144.004-100-1385-100-1539.004c0-457.998,135.996-747.998,410-873.994
		c160-72.998,415.996-104.004,769.999-94.004c192.002,5,224.004,11.006,257.998,47.002c39.004,42.002,42.002,75,122.002,1130
		c22.002,294.004,67.002,855,100,1245c32.002,390.996,62.002,750.996,65,802.002l7.002,90.996l395.996,5
		c442.002,5,487.002,10,619.004,72.002c97.002,45,152.002,104.004,208.994,220.996c62.002,127.002,79.004,219.004,105,585
		c21.006,292.002,22.002,311.006,6.006,345c-31.006,65-21.006,64.004-662.002,64.004c-569.004,0-575,0-575,20
		c0,87.002,79.004,542.998,117.002,675c95,330,265.996,552.998,473.994,615.996c57.002,17.002,89.004,21.006,177.002,18.008
		c92.998-4.004,115-8.008,165-33.008c69.004-32.998,109.004-82.998,132.002-161.992c24.004-82.002,42.998-225,50.996-384.004
		c8.008-165.996,17.002-192.002,71.006-212.002c62.002-22.002,390-15,537.002,11.006c276.992,48.994,496.992,160,621.992,311.992
		C8669.003,9342.002,8717.001,9745,8607.997,10065c-145,424.004-558.994,677.002-1247.998,760.996
		C7239.999,10840.996,6762.001,10852.002,6639.999,10844.004z"/>
	<path fill="#FFFFFF" d="M23195.994,10727.002c-32.998-32.998-43.994-94.004-60.996-355c-9.004-125-22.002-312.998-30-417.002
		c-15-192.002-37.002-529.004-74.004-1125c-11.992-179.004-23.994-367.998-26.992-420l-6.006-95l-33.994,102.998
		c-40,122.998-79.004,200-143.008,277.998c-175.996,219.004-510,334.004-970,334.004c-531.992,0-968.994-142.002-1350.996-439.004
		c-640.996-496.992-1014.004-1483.994-1014.004-2680.996c0-567.998,76.006-954.004,263.008-1345
		c203.994-425.996,505.996-717.998,898.994-870c382.998-147.998,882.002-165,1252.998-45c322.002,105,605,335,780,632.998
		l53.008,91.006l11.992-95c16.006-126.006,29.004-170,72.002-254.004c89.004-169.004,255-277.002,502.002-325.996
		c209.004-41.006,767.998-52.002,850.996-17.002c67.002,28.994,78.008,82.002,114.004,562.998c14.004,187.002,42.998,554.004,65,815
		c47.998,577.002,64.004,795,135,1790c69.004,960.996,177.998,2437.998,205.996,2785c26.006,315,22.002,440-15.996,570
		c-37.002,127.998-84.004,205.996-179.004,300c-91.992,90-170.996,137.002-312.998,185c-152.998,50.996-247.998,60-625.996,60
		h-337.998L23195.994,10727.002z M22362,7735c37.998-7.998,95.996-27.998,130-44.004c240-115,382.002-365,435-760
		c23.994-182.998,23.994-681.992,0-880.996c-57.002-457.998-170-740.996-387.002-960.996c-162.002-165-337.998-242.002-555-242.002
		c-124.004,0-205.996,17.002-300,62.998c-172.998,84.004-322.002,305-395,585.996c-80,311.006-94.004,878.008-29.004,1249.004
		c99.004,575.996,339.004,909.004,713.008,990C22057,7752.998,22277.996,7752.998,22362,7735z"/>
	<path fill="#FFFFFF" d="M10539.999,9019.004c-450-35-795-127.002-1130-300c-235-122.002-419.004-254.004-599.004-432.002
		c-335-330-555.996-736.006-680.996-1252.002c-190-777.998-162.998-1687.998,65-2280
		c245.996-639.004,777.998-1037.002,1532.002-1149.004c385-57.998,930.996-42.998,1290,35
		c305.996,66.006,630.996,200,877.998,363.008c282.002,185,537.998,453.994,717.998,752.998
		c261.006,432.998,416.006,897.002,477.998,1427.998c87.001,760,17.002,1374.004-210,1840
		c-130.996,265.996-303.994,477.998-515,629.004c-257.998,185-590,298.994-1025.996,351.992
		C11189.999,9025,10705.995,9032.998,10539.999,9019.004z M10927.001,7734.004c247.002-51.006,395-186.006,487.002-445
		c95.996-269.004,108.994-576.006,45-1069.004c-65-505-227.002-887.998-484.004-1145.996
		c-134.004-134.004-277.998-203.008-470-224.004c-235.996-27.002-450.996,42.998-592.998,194.004
		c-190,200-275,511.992-276.006,1005.996c-0.996,565.996,91.006,977.998,285,1275c62.002,97.002,232.002,267.002,312.002,314.004
		c69.004,40,161.006,75,254.004,95C10582.001,7754.004,10829.003,7755,10927.001,7734.004z"/>
	<path fill="#FFFFFF" d="M16269.998,9019.004c-450-35-795-127.002-1130-300c-235-122.002-419.004-254.004-599.004-432.002
		c-335-330-555.996-736.006-680.996-1252.002c-190-777.998-162.998-1687.998,65-2280
		c245.996-639.004,777.998-1037.002,1532.002-1149.004c385-57.998,930.996-42.998,1290,35
		c305.996,66.006,630.996,200,877.998,363.008c282.002,185,537.998,453.994,717.998,752.998
		c261.006,432.998,416.006,897.002,477.998,1427.998c87.002,760,17.002,1374.004-210,1840
		c-130.996,265.996-303.994,477.998-515,629.004c-257.998,185-590,298.994-1025.996,351.992
		C16919.998,9025,16435.994,9032.998,16269.998,9019.004z M16657,7734.004c247.002-51.006,395-186.006,487.002-445
		c95.996-269.004,108.994-576.006,45-1069.004c-65-505-227.002-887.998-484.004-1145.996
		c-134.004-134.004-277.998-203.008-470-224.004c-235.996-27.002-450.996,42.998-592.998,194.004
		c-190,200-275,511.992-276.006,1005.996c-0.996,565.996,91.006,977.998,285,1275c62.002,97.002,232.002,267.002,312.002,314.004
		c69.004,40,161.006,75,254.004,95C16312,7754.004,16559.002,7755,16657,7734.004z"/>
	<path fill="#FFFFFF" d="M28367,9014.004c-222.998-34.004-431.006-118.008-612.002-245
		c-172.998-123.008-400.996-377.002-465.996-521.006c-15-33.994-29.004-35.996-29.004-5c0,42.998-50.996,212.998-87.002,286.006
		c-27.002,56.992-55.996,95-117.998,156.992c-69.004,70-97.002,89.004-185.996,132.002
		C26677.996,8910.996,26557.996,8930,26152,8930c-270,0-300-2.002-332.002-19.004c-42.998-21.992-75-67.998-95-135
		c-10-33.994-42.002-411.992-95-1140.996c-44.004-599.004-90.996-1232.002-105-1405
		c-102.998-1310.996-110-1427.002-102.002-1704.004c7.998-277.998,39.004-407.998,129.004-541.992
		c80-119.004,190-198.008,355-254.004c133.994-45,255.996-59.004,547.998-65.996c287.002-7.002,354.004,0,417.998,41.992
		C26932,3745,26945.994,3790,26954.002,3955c10,210.996,40,612.002,105.996,1415c32.002,399.004,65.996,822.002,75,940
		c57.002,772.002,227.002,1219.004,512.998,1352.998c57.998,27.002,77.998,31.006,152.002,31.006
		c67.998,0,92.998-4.004,125.996-21.006c87.002-45.996,130-130,153.008-297.998c13.994-99.004,13.994-187.998-1.006-417.002
		c-13.994-217.998-10.996-228.994,57.002-258.994c115.996-51.006,415.994-69.004,579.002-34.004
		c243.996,52.002,455,182.002,600,369.004c196.992,255,285.996,530.996,285.996,885.996c0,230-32,382.998-115.996,555
		C29294,8865.996,28835.992,9087.002,28367,9014.004z"/>
	<path fill="#FFFFFF" d="M40449.996,9020c-247.004-22.002-492.996-74.004-685.996-145c-477-177.998-857-475-1119.004-877.998
		c-75-116.006-230.996-437.998-294.004-610C38184.996,6940,38115.992,6515,38117,5950c0-642.998,117-1087.002,400-1514.004
		c127.996-192.998,263.992-335,453.992-475.996c319.004-235.996,753.008-370,1254.004-387.002
		c285.996-8.994,495.996,21.006,755,107.002c338.008,112.998,562.004,239.004,783.008,440.996
		c107.988,100,147.988,160,216.992,322.002c180,427.002,218.008,689.004,120,827.002c-49.004,69.004-170.996,90-265,45.996
		c-26.992-12.998-121.992-71.992-210-130.996C41364,5009.004,41119,4900,40904,4864.004c-136.008-23.008-381.008-23.008-497,0
		c-390,75-574.008,305.996-643,805.996c-22,154.004-24.004,572.002-5,795c43.992,517.998,178.992,887.998,405.996,1110.996
		c130,129.004,265.996,178.008,474.004,172.002c113.992-2.998,130.996-5.996,183-30.996c172-85,237.996-297.998,237.996-777.002
		c0-190.996,9.004-242.002,45-265.996c60.996-40,397.004-37.002,620.996,6.992C42082,6749.004,42334,6912.998,42452,7152.998
		c102,205,132,481.006,82,750c-110,595-610,999.004-1364.004,1102.002C41032,9024.004,40600.992,9032.998,40449.996,9020z"/>
	<path fill="#FFFFFF" d="M30364,8915.996c-31.004-13.994-46.004-45.996-58.008-130.996c-2.996-22.002-40-505.996-80.996-1075
		c-42-569.004-89.004-1205.996-105-1415s-42.996-550.996-59.004-760c-43.992-560.996-53.992-782.998-47.996-1009.004
		c7.996-277.998,39.004-407.998,129.004-541.992c80-119.004,190-198.008,355-254.004c135-45,255.996-59.004,547.996-65.996
		c280.996-7.002,390.996,1.992,434.004,33.994c45,32.002,56.992,96.006,85,437.002c136.992,1679.004,175,2172.998,251.992,3305
		c32.004,472.998,35,745.996,11.008,879.004c-47.004,251.992-148,401.992-338,500.996c-87,45-224.004,84.004-349.004,100
		C31010.992,8935,30402.996,8932.998,30364,8915.996z"/>
</g>
</svg>
