<svg width="640" height="480" xmlns="http://www.w3.org/2000/svg">
 <!-- Created with SVG-edit - http://svg-edit.googlecode.com/ -->

 <g>
  <title>Layer 1</title>
  <g id="svg_23">
   <path stroke="#d98451" fill="#d98451" id="svg_22" d="m462.999512,287.33197c-28.778839,0 -54.529846,12.778625 -72.072601,32.893738l-121.393433,-60.696747c1.373993,-6.46106 2.134583,-13.158905 2.134583,-20.028931s-0.76059,-13.567871 -2.134583,-20.02536l121.393433,-60.700272c17.535645,20.122192 43.293762,32.893707 72.072601,32.893707c52.832886,0 95.66748,-42.834625 95.66748,-95.667557s-42.834595,-95.667549 -95.66748,-95.667549s-95.66748,42.834606 -95.66748,95.667549c0,6.870018 0.760559,13.567863 2.134552,20.02536l-121.393433,60.700272c-17.535629,-20.122192 -43.290146,-32.893692 -72.072601,-32.893692c-52.832886,0 -95.667549,42.83461 -95.667549,95.667542c0,52.832947 42.834663,95.667511 95.667549,95.667511c28.782455,0 54.529846,-12.778595 72.072601,-32.893707l121.400574,60.700348c-1.381134,6.457428 -2.141693,13.155273 -2.141693,20.02533c0,52.832916 42.834595,95.667511 95.66748,95.667511s95.66748,-42.834595 95.66748,-95.667511s-42.834595,-95.667542 -95.66748,-95.667542zm0,-239.163364c26.414734,0 47.832001,21.417248 47.832001,47.831944s-21.417267,47.83194 -47.832001,47.83194s-47.832001,-21.417259 -47.832001,-47.83194s21.417328,-47.831944 47.832001,-47.831944zm-286.998962,239.163364c-26.414688,0 -47.832001,-21.417236 -47.832001,-47.83194c0,-26.414688 21.417313,-47.831924 47.832001,-47.831924s47.831985,21.417236 47.831985,47.831924c0,26.414703 -21.417282,47.83194 -47.831985,47.83194zm286.998962,143.499542c-26.414673,0 -47.832001,-21.417267 -47.832001,-47.832001s21.417328,-47.83197 47.832001,-47.83197s47.832001,21.417297 47.832001,47.83197s-21.417267,47.832001 -47.832001,47.832001z"/>
  </g>
 </g>
</svg>