<?xml version="1.0" ?><svg height="52px" version="1.1" viewBox="0 0 52 52" width="52px" xmlns="http://www.w3.org/2000/svg" xmlns:sketch="http://www.bohemiancoding.com/sketch/ns" xmlns:xlink="http://www.w3.org/1999/xlink"><title/><description/><defs><linearGradient id="linearGradient-1" stop-color="#FFFFFF" x1="50%" x2="50%" y1="0%" y2="100%"><stop offset="0%"/><stop offset="80.200377%" stop-opacity="0.7"/><stop offset="100%" stop-opacity="0.9"/></linearGradient></defs><g fill="none" fill-rule="evenodd" id="black" stroke="none" stroke-width="1"><g fill="#4086CD" id="color"><circle cx="26" cy="26" d="M26,52 C40.3594042,52 52,40.3594042 52,26 C52,11.6405958 40.3594042,0 26,0 C11.6405958,0 0,11.6405958 0,26 C0,40.3594042 11.6405958,52 26,52 Z M26,52" id="Twitter" r="26"/></g><g fill="#FFFFFF" id="Icon" transform="translate(10.000000, 11.000000)"><path d="M25.57852,4.97846837 C24.53076,3.7872413 23.0378,3.02826889 21.38552,3.00076689 C18.21312,2.94796268 15.6409,5.62866694 15.6409,8.9880339 C15.6409,9.46480902 15.69172,9.92973426 15.78972,10.3760501 C11.01544,10.0663722 6.78254,7.58026785 3.94936,3.83275889 C3.45488,4.73074681 3.17152,5.78029835 3.17152,6.90459698 C3.17152,9.03298999 4.18568,10.9219236 5.72708,12.0372284 C4.78544,11.9956566 3.89966,11.7105994 3.12518,11.2429584 C3.12462,11.268519 3.12462,11.2940856 3.12462,11.3201008 C3.12462,14.2924098 5.10478,16.7859466 7.73272,17.3668132 C7.2507,17.5033996 6.7432,17.5748808 6.21932,17.5714069 C5.84916,17.5689524 5.48922,17.5279036 5.13852,17.4541989 C5.86946,19.891794 7.99088,21.6705308 10.50472,21.7293442 C8.5387,23.3613368 6.06182,24.3333008 3.37032,24.3277487 C2.90664,24.3267922 2.4494,24.2968304 2,24.2391864 C4.54226,25.9835387 7.56178,26.9991483 10.80586,26.9999994 C21.37208,27.0027715 27.1503,17.8075761 27.1503,9.83186619 C27.1503,9.57019147 27.14456,9.30991657 27.13364,9.05089836 C28.25602,8.21457759 29.22986,7.16601727 30,5.96865647 C28.96988,6.433014 27.86262,6.74141948 26.70076,6.87078617 C27.8867,6.14090316 28.79768,4.97274993 29.2265,3.57192395 C28.11644,4.24509332 26.8871,4.72784448 25.57852,4.97846837 Z M25.57852,4.97846837" id="twitter"/></g></g></svg>