<?xml version="1.0" encoding="utf-8"?>
<!-- Generator: Adobe Illustrator 16.0.0, SVG Export Plug-In . SVG Version: 6.00 Build 0)  -->
<!DOCTYPE svg PUBLIC "-//W3C//DTD SVG 1.1//EN" "http://www.w3.org/Graphics/SVG/1.1/DTD/svg11.dtd">
<svg version="1.1" id="Layer_1" xmlns="http://www.w3.org/2000/svg" xmlns:xlink="http://www.w3.org/1999/xlink" x="0px" y="0px"
	 width="300px" height="266.982px" viewBox="0 0 300 266.982" enable-background="new 0 0 300 266.982" xml:space="preserve">
<path fill="#FFFFFF" d="M216.33,40.16c16.1-5.71,33.609-8.76,50.6-5.71c10.59,1.55,20.91,5.08,30.35,10.13
	c1.132,0.43,1.762,1.24,1.892,2.44c0.7,3.38,0.07,6.82-0.75,10.11c-3.21,0.98-6.3,2.32-9.55,3.12c-3.521,0.19-6.57-1.95-9.32-3.88
	c-7.34-6.12-17.25-7.76-26.51-8.18c-12.05-0.23-24.45,1.8-35.068,7.71c-5.98,3.24-12.791,5.52-17.65,10.44
	c-5.75,10.32-7.78,22.19-9.471,33.74c-1.101,9.91-1.75,19.93-1.08,29.9c2.189,15.6,2.891,31.379,2.17,47.1
	c-1.061,11.83-2.789,23.74-7.271,34.811c-5.198,14.851-15.101,27.659-26.8,38.01c-8.08,6.811-17.47,12.181-27.75,14.789
	c-4.58,1.092-9.25,2.78-14.02,2.16c-9.08-2.199-18.09-5.108-26.26-9.72c-9.07-5.67-18.22-11.51-25.31-19.649
	c-2.8-2.221-2.97-6.069-5.18-8.711c-7.49-8.229-10.4-19.398-12.66-30.01c-0.24-5.279-1.54-10.46-1.18-15.779
	c0.54-19.859,5.23-39.34,10.34-58.489c1.89-7.42,4.59-14.62,6.06-22.14c-12.42-6.34-25.52-13.33-39.88-12.73
	c-3.95,1.48-7.31,4.14-11.15,5.85c-3.32-0.61-6.4-2.51-9.14-4.46c-1.39-2.47-0.46-5.4-0.16-8.02c7.95-6.55,18.62-9.13,28.74-7.76
	c11.38,1.21,22.04,5.65,32.59,9.8c5.72,2.72,11.59,5.18,17.73,6.81c10.16,2.66,20.76,2.7,31.12,1.43
	c16.15-2.63,31.72-8.42,46.061-16.26c5.8-3.15,11.83-6,17.07-10.05C187.49,56.3,201.5,47.38,216.33,40.16z"/>
<path fill="#D98451" d="M144.23,101.23c8.79-3.3,17.1-8.01,26.25-10.3c-0.33,2.25-0.94,4.53-0.521,6.81
	c1.41,8.36,0.391,16.85,0.721,25.27c0.369,8.82-0.939,17.801,1.649,26.41c1.351,16.66,2.101,33.79-2.091,50.15
	c-1.739,7.5-5.881,14.09-8.711,21.18c-6.559,13.59-19.438,23.2-33.458,28.12c-3.8,1.19-7.83,3.53-11.84,1.771
	c-6.57-2.261-14.08-2.631-19.63-7.201c-5.89-4.459-11.76-8.948-17.63-13.43c-2.92-2.14-4.56-5.47-6.32-8.529
	c-5.24-9.811-10.28-20.199-11.05-31.471c0.58-6,0.9-12.02,0.75-18.05c-0.31-8.37,2.91-16.229,4.51-24.31
	c2.56-11.58,4.88-23.84,12.41-33.4c1.87-2.36,4.22-5.66,7.7-4.47c7.13,1.37,14.57,0.97,21.58,2.84
	c-1.46,11.48-2.2,23.069-3.43,34.58c-0.45,3.229-0.77,6.5-0.56,9.75c2.26,4.85,5.97,8.96,10.54,11.739
	c4.09-1.061,7.82-3.09,11.05-5.799c-6.37-15.701-3.34-33.182,2.24-48.611c0.99-2.57,1.83-5.23,3.3-7.58
	C135.5,104.15,140.08,103.12,144.23,101.23z"/>
</svg>
