<?xml version="1.0" encoding="utf-8"?>
<!-- Generator: Adobe Illustrator 16.0.0, SVG Export Plug-In . SVG Version: 6.00 Build 0)  -->
<!DOCTYPE svg PUBLIC "-//W3C//DTD SVG 1.1//EN" "http://www.w3.org/Graphics/SVG/1.1/DTD/svg11.dtd">
<svg version="1.1" id="Livello_1" xmlns="http://www.w3.org/2000/svg" xmlns:xlink="http://www.w3.org/1999/xlink" x="0px" y="0px"
	 width="141.732px" height="141.732px" viewBox="0 0 141.732 141.732" enable-background="new 0 0 141.732 141.732"
	 xml:space="preserve">
<g id="Livello_100">
	<path fill="#FFFFFF" d="M139.273,49.088c0-3.283-2.75-5.948-6.146-5.948c-0.219,0-0.434,0.012-0.646,0.03l-42.445-1.001
		l-14.5-37.854C74.805,1.824,72.443,0,69.637,0c-2.81,0-5.168,1.824-5.902,4.315L49.232,42.169L6.789,43.17
		c-0.213-0.021-0.43-0.03-0.646-0.03C2.75,43.135,0,45.802,0,49.088c0,2.101,1.121,3.938,2.812,4.997l33.807,23.9l-12.062,37.494
		c-0.438,0.812-0.688,1.74-0.688,2.723c0,3.287,2.75,5.952,6.146,5.952c1.438,0,2.766-0.484,3.812-1.29l35.814-22.737l35.812,22.737
		c1.049,0.806,2.371,1.29,3.812,1.29c3.393,0,6.143-2.665,6.143-5.952c0-0.979-0.25-1.906-0.688-2.723l-12.062-37.494l33.806-23.9
		C138.15,53.024,139.273,51.185,139.273,49.088"/>
</g>
<g id="Livello_1_1_">
</g>
</svg>
