<?xml version="1.0" encoding="UTF-8" standalone="no"?>
<!-- Created with Inkscape (http://www.inkscape.org/) -->

<svg
   xmlns:dc="http://purl.org/dc/elements/1.1/"
   xmlns:cc="http://creativecommons.org/ns#"
   xmlns:rdf="http://www.w3.org/1999/02/22-rdf-syntax-ns#"
   xmlns:svg="http://www.w3.org/2000/svg"
   xmlns="http://www.w3.org/2000/svg"
   xmlns:sodipodi="http://sodipodi.sourceforge.net/DTD/sodipodi-0.dtd"
   xmlns:inkscape="http://www.inkscape.org/namespaces/inkscape"
   width="750"
   height="200"
   id="svg2"
   version="1.1"
   inkscape:version="0.48.4 r9939"
   sodipodi:docname="logo.svg">
  <defs
     id="defs4" />
  <sodipodi:namedview
     id="base"
     pagecolor="#ffffff"
     bordercolor="#666666"
     borderopacity="1.0"
     inkscape:pageopacity="0.0"
     inkscape:pageshadow="2"
     inkscape:zoom="0.49497475"
     inkscape:cx="164.24052"
     inkscape:cy="720.70069"
     inkscape:document-units="px"
     inkscape:current-layer="layer1"
     showgrid="false"
     inkscape:window-width="1855"
     inkscape:window-height="1056"
     inkscape:window-x="65"
     inkscape:window-y="24"
     inkscape:window-maximized="1" />
  <metadata
     id="metadata7">
    <rdf:RDF>
      <cc:Work
         rdf:about="">
        <dc:format>image/svg+xml</dc:format>
        <dc:type
           rdf:resource="http://purl.org/dc/dcmitype/StillImage" />
        <dc:title></dc:title>
      </cc:Work>
    </rdf:RDF>
  </metadata>
  <g
     inkscape:label="Camada 1"
     inkscape:groupmode="layer"
     id="layer1"
     transform="translate(0,-852.36218)">
    <g
       id="g3003"
       transform="matrix(3.148126,0,0,3.148126,-44.042887,862.56909)"
       style="fill:#ffffff">
      <path
         style="fill:#ffffff;fill-opacity:1"
         id="path3043"
         transform="scale(0.8,0.8)"
         d="M 53.96875,7.6875 C 45.35957,7.875 36.6125,9.146875 30.125,15.15625 24.8625,19.75625 25.85,27.25 25.8125,33.5 c 23.6125,-0.025 47.2625,-0.0375 70.875,0 -0.1125,-6 0.975,-13.0875 -3.75,-17.75 -7.875,-7.9875 -20.0125,-8.2625 -30.5,-8 C 59.684375,7.709375 56.838477,7.625 53.96875,7.6875 z M 52.0625,11.375 c 1.0125,0.725 3,2.2 4,2.9375 -1.6375,0.8125 -3.40625,2.69375 -5.21875,1.09375 0.3,-1 0.91875,-3.03125 1.21875,-4.03125 z m 18.03125,0.09375 c 0.5375,1.1625 1.6,3.475 2.125,4.625 -2.0375,-0.1875 -4,-0.70625 -5.8125,-1.65625 l 3.6875,-2.96875 z m -23.53125,8.75 c 0.0375,1.5125 0.06875,3.01875 0.09375,4.53125 -1.2625,-0.7125 -4.675,-0.0125 -4,-2.25 -0.3125,-2.1 2.65625,-1.55625 3.90625,-2.28125 z m 32.09375,0.0625 c 0.5375,0.725 1.61875,2.18125 2.15625,2.90625 -1.65,0.5375 -3.275,1.05625 -4.9375,1.59375 0,-1.2625 -0.0125,-2.50625 0,-3.78125 0.7,-0.175 2.09375,-0.54375 2.78125,-0.71875 z m -17.21875,0.125 c 2.034204,-0.02786 2.78125,3.165625 0.59375,4.0625 -2.3375,1.6 -4.36875,-3.71875 -1.53125,-3.84375 0.339062,-0.151563 0.646899,-0.214771 0.9375,-0.21875 z"
         inkscape:connector-curvature="0" />
      <path
         id="path3045"
         d="m 95.38,9.52 c 2.57,-2.08 6.06,-1.37 9.09,-1.27 0.02,1.56 0.03,3.13 0.04,4.69 -1.75,0.39 -4.19,-0.55 -5.4,1.16 -0.71,1.61 -0.84,3.4 -1.19,5.1 1.61,0.03 3.22,0.05 4.83,0.06 0,1.5 0,2.99 0,4.49 -1.5,0 -3,0.01 -4.49,0.01 -0.07,6.44 0.09,12.89 -0.02,19.33 -0.05,3.11 -0.87,6.65 -3.66,8.45 -2.37,1.67 -5.38,1.07 -8.07,0.97 C 86.5,51 86.49,49.5 86.49,47.99 c 2.05,-0.32 5.42,-0.1 5.5,-3.03 0.65,-7.03 0.07,-14.11 0.26,-21.16 -0.76,-0.03 -2.28,-0.08 -3.03,-0.1 0,-0.63 0.01,-1.87 0.01,-2.5 0.93,-0.62 1.86,-1.25 2.78,-1.88 0.43,-3.39 0.37,-7.51 3.37,-9.8 z"
         inkscape:connector-curvature="0"
         style="fill:#ffffff" />
      <path
         id="path3047"
         d="m 212.07,10.03 c 2.37,-2.31 5.89,-1.73 8.87,-1.44 0.05,1.38 0.09,2.76 0.14,4.15 -1.91,0.3 -4.82,-0.82 -5.72,1.52 -0.56,1.67 -0.61,3.46 -0.84,5.2 1.57,0.02 3.15,0.04 4.73,0.05 0,1 0,2.99 0,3.99 -1.5,0 -3,0 -4.5,0 -0.03,6.52 0.06,13.04 -0.01,19.55 -0.04,3.24 -1.1,6.96 -4.17,8.56 -2.12,1.34 -4.71,0.68 -7.05,0.63 -0.02,-1.32 -0.05,-2.64 -0.07,-3.96 1.41,-0.15 2.8,-0.38 4.18,-0.69 1.43,-0.92 1.48,-2.87 1.6,-4.38 0.09,-6.57 -0.03,-13.14 0.02,-19.7 -0.75,-0.01 -2.23,-0.01 -2.98,-0.01 -0.02,-0.52 -0.06,-1.57 -0.08,-2.09 0.96,-0.63 1.92,-1.26 2.87,-1.89 0.37,-3.27 0.26,-7.15 3.01,-9.49 z"
         inkscape:connector-curvature="0"
         style="fill:#ffffff" />
      <path
         style="fill:#ffffff;fill-opacity:1"
         transform="scale(0.8,0.8)"
         id="path3049"
         d="m 210.3125,10.625 c -0.0125,4.2875 -0.025,8.5875 0,12.875 -3.7375,0.0875 -7.925,-0.4375 -11.0625,2.0625 -5.6875,4.1125 -6.90625,11.79375 -6.46875,18.34375 0.1,5.2375 3.025,11.36875 8.8125,11.96875 3.925,0.875 7.10625,-1.8875 9.40625,-4.6875 1.8375,4.125 5.9875,4.98125 10.125,4.46875 -0.2875,-4.225 -3.61875,-7.51875 -3.59375,-11.78125 -0.125,-11.075 0.0312,-22.1625 -0.0312,-33.25 l -7.1875,0 z m 0.0625,18.9375 c -0.425,6.25 0.95625,13.61875 -3.28125,18.84375 -1.725,2.4375 -5.4625,0.91875 -6.0625,-1.65625 -1.3125,-4.9125 -1.35,-10.84375 1.8125,-15.09375 1.725,-2.375 5.01875,-1.61875 7.53125,-2.09375 z"
         inkscape:connector-curvature="0" />
      <path
         id="path3051"
         d="m 198.47,9.48 c 2.28,-1.51 5.77,0.65 5.03,3.43 -0.05,3.19 -5.22,3.55 -6.16,0.74 -0.79,-1.38 -0.22,-3.36 1.13,-4.17 z"
         inkscape:connector-curvature="0"
         style="fill:#ffffff" />
      <path
         id="path3053"
         d="m 223.45,9.3 c 2.23,-1.17 5.19,1.03 4.55,3.54 -0.01,3.09 -5.05,3.71 -6.07,0.97 -0.86,-1.54 -0.31,-3.98 1.52,-4.51 z"
         inkscape:connector-curvature="0"
         style="fill:#ffffff" />
      <path
         style="fill:#ffffff;fill-opacity:1"
         id="path3065"
         transform="scale(0.8,0.8)"
         d="m 143.96875,23.375 c -1.64199,0.0418 -3.25,0.35625 -4.75,0.9375 -4.55,1.6375 -7.18125,6.2625 -8.03125,10.8125 -0.975,5.1875 -0.825,11 2,15.625 4.6125,7.075 16.61875,6.96875 21.15625,-0.15625 3.7375,-5.9375 4.16875,-13.85 1.59375,-20.3125 -1.97812,-4.74375 -7.04277,-7.031641 -11.96875,-6.90625 z m 0.15625,6.0625 c 2.47266,-0.0252 4.8625,2.2625 5.21875,4.8125 0.925,4.7 0.89375,10.23125 -2.09375,14.21875 -2.9875,3.275 -7.9875,0.33125 -8.4375,-3.53125 C 138,40.125 137.7,33.85 141.6875,30.3125 c 0.76875,-0.596875 1.61328,-0.866602 2.4375,-0.875 z"
         inkscape:connector-curvature="0" />
      <path
         style="fill:#ffffff;fill-opacity:1"
         id="path3067"
         transform="scale(0.8,0.8)"
         d="m 174.9375,23.375 c -1.55957,0.04648 -3.10313,0.340625 -4.53125,0.84375 -5.05,1.8 -7.8625,7.1 -8.4375,12.1875 -0.675,5.3625 -0.44375,11.5625 3.34375,15.8125 5.575,5.9125 16.725,4.7125 20.625,-2.5625 3.175,-6.0875 3.51875,-13.8125 0.59375,-20.0625 -2.1,-4.378125 -6.91504,-6.358203 -11.59375,-6.21875 z m 0.28125,6.09375 c 2.26113,0.05508 4.41875,1.93125 4.90625,4.21875 1.3125,4.7875 1.14375,10.45625 -1.71875,14.65625 -2.575,2.95 -7.4,1.26875 -8.25,-2.34375 C 168.79375,40.85 168.425,33.75 173,30.0625 c 0.72188,-0.43125 1.46504,-0.612109 2.21875,-0.59375 z"
         inkscape:connector-curvature="0" />
      <path
         id="path3069"
         d="m 188.66,20.68 c 1.4,-1.54 3.64,-1.52 5.52,-1.99 0.04,1.66 0.07,3.32 0.11,4.98 -2.08,0.5 -4.82,0.49 -5.83,2.77 -2.81,5.39 -2.16,11.7 -2.51,17.56 -1.74,0 -3.47,0 -5.2,0 -0.09,-8.17 0.21,-16.35 -0.21,-24.51 1.59,0.01 3.17,0.01 4.76,0.01 0.11,2.39 0.17,4.79 0.15,7.19 0.92,-2.07 1.63,-4.32 3.21,-6.01 z"
         inkscape:connector-curvature="0"
         style="fill:#ffffff" />
      <path
         id="path3071"
         d="m 236.05,22.04 c 3.31,-3.52 8.49,-3.27 12.89,-2.7 0.03,1.57 0.06,3.15 0.09,4.72 -2.64,-0.49 -5.59,-1.52 -8.07,0.07 -2.6,1.63 -3.06,5.02 -3.2,7.83 -0.02,2.86 0.69,6.46 3.59,7.76 2.48,1.25 5.09,-0.22 7.45,-1.01 -0.03,1.48 -0.05,2.96 -0.06,4.44 -4.52,1.83 -10.47,2.1 -13.84,-2.03 -4.04,-5.54 -3.39,-14.02 1.15,-19.08 z"
         inkscape:connector-curvature="0"
         style="fill:#ffffff" />
      <path
         id="path3073"
         d="m 197.52,37.8 c -0.1,-6.1 0.02,-12.2 -0.02,-18.3 1.83,0 3.66,0 5.5,0 0.05,6.64 -0.14,13.3 0.14,19.94 0.54,0.35 1.6,1.05 2.13,1.41 -0.01,0.87 -0.03,2.63 -0.04,3.5 -1.69,-0.06 -3.45,0.26 -5.06,-0.34 -2.15,-1.26 -2.58,-3.94 -2.65,-6.21 z"
         inkscape:connector-curvature="0"
         style="fill:#ffffff" />
      <path
         id="path3075"
         d="m 222,19.5 c 1.83,0 3.66,0 5.5,0 0.17,6.41 -0.34,12.86 0.24,19.25 0.47,0.61 1.43,1.83 1.9,2.44 0.06,1.03 0.11,2.06 0.16,3.09 -2.87,0.51 -6.78,0.13 -7.38,-3.38 -0.95,-7.07 -0.17,-14.28 -0.42,-21.4 z"
         inkscape:connector-curvature="0"
         style="fill:#ffffff" />
      <path
         id="path3083"
         d="m 17.54,31.55 c 0.85,-1.65 2.67,-2.32 4.45,-2.14 18.3,0.04 36.61,-0.05 54.92,0.04 2.13,-0.18 3.64,1.76 4.25,3.59 -0.63,1.33 -1.65,2.39 -2.59,3.5 -19.72,-0.13 -39.44,-0.11 -59.16,0 -1.01,-1.45 -3.55,-3.13 -1.87,-4.99 z"
         inkscape:connector-curvature="0"
         style="fill:#ffffff" />
      <path
         id="path3085"
         d="m 20.49,39.13 c 19.01,-0.01 38.01,-0.01 57.02,0 -0.26,2.99 -0.02,6.57 -2.64,8.64 -1.79,1.82 -4.4,2.08 -6.81,2.01 C 55,49.7 41.93,49.76 28.87,49.76 26.33,49.93 23.8,48.85 22.24,46.84 20.44,44.7 20.8,41.72 20.49,39.13 z"
         inkscape:connector-curvature="0"
         style="fill:#ffffff" />
    </g>
  </g>
</svg>
