<?xml version="1.0" encoding="UTF-8" standalone="no"?>
<!-- Created with Inkscape (http://www.inkscape.org/) -->

<svg
   xmlns:dc="http://purl.org/dc/elements/1.1/"
   xmlns:cc="http://creativecommons.org/ns#"
   xmlns:rdf="http://www.w3.org/1999/02/22-rdf-syntax-ns#"
   xmlns:svg="http://www.w3.org/2000/svg"
   xmlns="http://www.w3.org/2000/svg"
   xmlns:sodipodi="http://sodipodi.sourceforge.net/DTD/sodipodi-0.dtd"
   xmlns:inkscape="http://www.inkscape.org/namespaces/inkscape"
   width="500"
   height="500"
   id="svg2"
   version="1.1"
   inkscape:version="0.48.4 r9939"
   sodipodi:docname="post-photo.svg">
  <defs
     id="defs4" />
  <sodipodi:namedview
     id="base"
     pagecolor="#ffffff"
     bordercolor="#666666"
     borderopacity="1.0"
     inkscape:pageopacity="0.0"
     inkscape:pageshadow="2"
     inkscape:zoom="0.7"
     inkscape:cx="334.71722"
     inkscape:cy="286.73552"
     inkscape:document-units="px"
     inkscape:current-layer="layer1"
     showgrid="false"
     inkscape:window-width="1301"
     inkscape:window-height="744"
     inkscape:window-x="65"
     inkscape:window-y="24"
     inkscape:window-maximized="1" />
  <metadata
     id="metadata7">
    <rdf:RDF>
      <cc:Work
         rdf:about="">
        <dc:format>image/svg+xml</dc:format>
        <dc:type
           rdf:resource="http://purl.org/dc/dcmitype/StillImage" />
        <dc:title></dc:title>
      </cc:Work>
    </rdf:RDF>
  </metadata>
  <g
     inkscape:label="Camada 1"
     inkscape:groupmode="layer"
     id="layer1"
     transform="translate(0,-552.36218)">
    <rect
       style="fill:#ffffff;fill-opacity:1"
       id="rect4115"
       width="504.28571"
       height="511.42856"
       x="-1.4285711"
       y="550.93359" />
    <path
       style="fill:#efc296;fill-opacity:1"
       inkscape:connector-curvature="0"
       d="m 432.38001,690.60858 h -45.71277 c -17.66197,0 -37.83454,-13.26239 -44.83566,-29.47683 l -0.22982,-0.53321 c -7.00197,-16.21361 -27.17289,-29.476 -44.83319,-29.476 H 208.9366 c -17.66276,0 -37.83203,13.26239 -44.83564,29.476 l -0.22982,0.53321 c -6.99947,16.21444 -27.17041,29.47683 -44.83319,29.47683 H 73.3351 c -17.66278,0 -32.107312,14.44867 -32.107312,32.10731 v 215.9215 c 0,17.66278 14.444532,32.10728 32.107312,32.10728 h 359.04491 c 17.66196,0 32.10649,-14.4445 32.10649,-32.10728 v -215.9215 c 0,-17.65864 -14.44453,-32.10731 -32.10649,-32.10731 z M 252.85217,928.2287 c -59.77866,0 -108.25253,-48.47223 -108.25253,-108.25175 0,-59.78943 48.47387,-108.25751 108.25253,-108.25751 59.78943,0 108.26248,48.46808 108.26248,108.25751 0,59.78034 -48.47305,108.25175 -108.26248,108.25175 z"
       id="path3142" />
    <path
       inkscape:connector-curvature="0"
       d="m 241.72357,765.01163 c -18.11405,0.39451 -36.51823,3.07059 -50.16818,15.71454 -11.07251,9.67858 -8.99477,25.44572 -9.07367,38.59597 49.68162,-0.0526 99.44214,-0.0789 149.12376,0 -0.2367,-12.62424 2.05144,-27.53661 -7.89014,-37.3467 -16.56931,-16.80601 -42.10708,-17.38462 -64.17319,-16.83231 -5.7927,-0.0854 -11.78056,-0.263 -17.81858,-0.1315 z m -4.01083,7.75864 c 2.13034,1.52543 6.31212,4.62889 8.41616,6.18062 -3.44537,1.70953 -7.16688,5.66775 -10.98046,2.30129 0.63122,-2.10404 1.93309,-6.37787 2.5643,-8.48191 z m 37.93846,0.19715 c 1.13092,2.44595 3.36646,7.31154 4.47108,9.73118 -4.28698,-0.3945 -8.41616,-1.48597 -12.22973,-3.48481 l 7.75865,-6.24637 z m -49.51067,18.41034 c 0.0789,3.18236 0.14476,6.35157 0.19715,9.53393 -2.65635,-1.49913 -9.83639,-0.0263 -8.41616,-4.73409 -0.65751,-4.41848 5.58885,-3.27441 8.2189,-4.79984 z m 67.5265,0.13151 c 1.13092,1.52542 3.40591,4.58943 4.53683,6.11486 -3.47166,1.13092 -6.89072,2.22239 -10.38869,3.35331 0,-2.65635 -0.0263,-5.27325 0,-7.9559 1.47283,-0.3682 4.40533,-1.14407 5.85186,-1.51227 z m -36.22892,0.263 c 4.28003,-0.0587 5.85186,6.66061 1.24927,8.54766 -4.91819,3.36646 -9.19202,-7.8244 -3.22181,-8.0874 0.7134,-0.31889 1.3611,-0.45188 1.97254,-0.46026 z"
       id="path3043"
       style="fill:#efc296;fill-opacity:1" />
    <path
       style="fill:#efc296;fill-opacity:1"
       inkscape:connector-curvature="0"
       d="m 174.30227,831.81487 c 2.23554,-4.33958 7.02223,-6.10171 11.70371,-5.62831 48.1299,0.10521 96.28609,-0.1315 144.44228,0.10521 5.60201,-0.47341 9.57338,4.62888 11.17771,9.44187 -1.65693,3.49797 -4.33958,6.28582 -6.81183,9.20517 -51.86456,-0.3419 -103.72912,-0.2893 -155.59368,0 -2.65635,-3.81357 -9.33668,-8.23205 -4.91819,-13.12394 z"
       id="path3083" />
    <path
       style="fill:#efc296;fill-opacity:1"
       inkscape:connector-curvature="0"
       d="m 182.06091,851.75064 c 49.99723,-0.0263 99.96815,-0.0263 149.96538,0 -0.68381,7.86384 -0.0526,17.27942 -6.94333,22.72362 -4.70779,4.78669 -11.57221,5.4705 -17.91063,5.2864 -34.34844,-0.21041 -68.72317,-0.0526 -103.07161,-0.0526 -6.68033,0.4471 -13.33435,-2.39335 -17.43722,-7.67975 -4.73409,-5.6283 -3.78727,-13.46585 -4.60259,-20.27767 z"
       id="path3085" />
  </g>
</svg>
