<?xml version="1.0" encoding="UTF-8" standalone="no"?>
<svg
   xmlns:dc="http://purl.org/dc/elements/1.1/"
   xmlns:cc="http://creativecommons.org/ns#"
   xmlns:rdf="http://www.w3.org/1999/02/22-rdf-syntax-ns#"
   xmlns:svg="http://www.w3.org/2000/svg"
   xmlns="http://www.w3.org/2000/svg"
   xmlns:sodipodi="http://sodipodi.sourceforge.net/DTD/sodipodi-0.dtd"
   xmlns:inkscape="http://www.inkscape.org/namespaces/inkscape"
   width="272pt"
   height="56pt"
   viewBox="0 0 272 56"
   version="1.1"
   id="svg3039"
   inkscape:version="0.48.4 r9939"
   sodipodi:docname="logo.svg">
  <metadata
     id="metadata3091">
    <rdf:RDF>
      <cc:Work
         rdf:about="">
        <dc:format>image/svg+xml</dc:format>
        <dc:type
           rdf:resource="http://purl.org/dc/dcmitype/StillImage" />
      </cc:Work>
    </rdf:RDF>
  </metadata>
  <defs
     id="defs3089" />
  <sodipodi:namedview
     pagecolor="#ffffff"
     bordercolor="#666666"
     borderopacity="1"
     objecttolerance="10"
     gridtolerance="10"
     guidetolerance="10"
     inkscape:pageopacity="0"
     inkscape:pageshadow="2"
     inkscape:window-width="1366"
     inkscape:window-height="705"
     id="namedview3087"
     showgrid="false"
     inkscape:zoom="3.5470588"
     inkscape:cx="170"
     inkscape:cy="35"
     inkscape:window-x="-8"
     inkscape:window-y="-8"
     inkscape:window-maximized="1"
     inkscape:current-layer="svg3039" />
  <path
     d="M 53.96875 7.6875 C 45.35957 7.875 36.6125 9.146875 30.125 15.15625 C 24.8625 19.75625 25.85 27.25 25.8125 33.5 C 49.425 33.475 73.075 33.4625 96.6875 33.5 C 96.575 27.5 97.6625 20.4125 92.9375 15.75 C 85.0625 7.7625 72.925 7.4875 62.4375 7.75 C 59.684375 7.709375 56.838477 7.625 53.96875 7.6875 z M 52.0625 11.375 C 53.075 12.1 55.0625 13.575 56.0625 14.3125 C 54.425 15.125 52.65625 17.00625 50.84375 15.40625 C 51.14375 14.40625 51.7625 12.375 52.0625 11.375 z M 70.09375 11.46875 C 70.63125 12.63125 71.69375 14.94375 72.21875 16.09375 C 70.18125 15.90625 68.21875 15.3875 66.40625 14.4375 L 70.09375 11.46875 z M 46.5625 20.21875 C 46.6 21.73125 46.63125 23.2375 46.65625 24.75 C 45.39375 24.0375 41.98125 24.7375 42.65625 22.5 C 42.34375 20.4 45.3125 20.94375 46.5625 20.21875 z M 78.65625 20.28125 C 79.19375 21.00625 80.275 22.4625 80.8125 23.1875 C 79.1625 23.725 77.5375 24.24375 75.875 24.78125 C 75.875 23.51875 75.8625 22.275 75.875 21 C 76.575 20.825 77.96875 20.45625 78.65625 20.28125 z M 61.4375 20.40625 C 63.471704 20.378394 64.21875 23.571875 62.03125 24.46875 C 59.69375 26.06875 57.6625 20.75 60.5 20.625 C 60.839062 20.473437 61.146899 20.410229 61.4375 20.40625 z "
     transform="scale(0.8,0.8)"
     id="path3043"
     style="fill:#e79d48;fill-opacity:1" />
  <path
     fill="#e79d48"
     d=" M 95.38 9.52 C 97.95 7.44 101.44 8.15 104.47 8.25 C 104.49 9.81 104.50 11.38 104.51 12.94 C 102.76 13.33 100.32 12.39 99.11 14.10 C 98.40 15.71 98.27 17.50 97.92 19.20 C 99.53 19.23 101.14 19.25 102.75 19.26 C 102.75 20.76 102.75 22.25 102.75 23.75 C 101.25 23.75 99.75 23.76 98.26 23.76 C 98.19 30.20 98.35 36.65 98.24 43.09 C 98.19 46.20 97.37 49.74 94.58 51.54 C 92.21 53.21 89.20 52.61 86.51 52.51 C 86.50 51.00 86.49 49.50 86.49 47.99 C 88.54 47.67 91.91 47.89 91.99 44.96 C 92.64 37.93 92.06 30.85 92.25 23.80 C 91.49 23.77 89.97 23.72 89.22 23.70 C 89.22 23.07 89.23 21.83 89.23 21.20 C 90.16 20.58 91.09 19.95 92.01 19.32 C 92.44 15.93 92.38 11.81 95.38 9.52 Z"
     id="path3045" />
  <path
     fill="#b25900"
     d=" M 212.07 10.03 C 214.44 7.72 217.96 8.30 220.94 8.59 C 220.99 9.97 221.03 11.35 221.08 12.74 C 219.17 13.04 216.26 11.92 215.36 14.26 C 214.80 15.93 214.75 17.72 214.52 19.46 C 216.09 19.48 217.67 19.50 219.25 19.51 C 219.25 20.51 219.25 22.50 219.25 23.50 C 217.75 23.50 216.25 23.50 214.75 23.50 C 214.72 30.02 214.81 36.54 214.74 43.05 C 214.70 46.29 213.64 50.01 210.57 51.61 C 208.45 52.95 205.86 52.29 203.52 52.24 C 203.50 50.92 203.47 49.60 203.45 48.28 C 204.86 48.13 206.25 47.90 207.63 47.59 C 209.06 46.67 209.11 44.72 209.23 43.21 C 209.32 36.64 209.20 30.07 209.25 23.51 C 208.50 23.50 207.02 23.50 206.27 23.50 C 206.25 22.98 206.21 21.93 206.19 21.41 C 207.15 20.78 208.11 20.15 209.06 19.52 C 209.43 16.25 209.32 12.37 212.07 10.03 Z"
     id="path3047" />
  <path
     d="M 210.3125 10.625 C 210.3 14.9125 210.2875 19.2125 210.3125 23.5 C 206.575 23.5875 202.3875 23.0625 199.25 25.5625 C 193.5625 29.675 192.34375 37.35625 192.78125 43.90625 C 192.88125 49.14375 195.80625 55.275 201.59375 55.875 C 205.51875 56.75 208.7 53.9875 211 51.1875 C 212.8375 55.3125 216.9875 56.16875 221.125 55.65625 C 220.8375 51.43125 217.50625 48.1375 217.53125 43.875 C 217.40625 32.8 217.5625 21.7125 217.5 10.625 L 210.3125 10.625 z M 210.375 29.5625 C 209.95 35.8125 211.33125 43.18125 207.09375 48.40625 C 205.36875 50.84375 201.63125 49.325 201.03125 46.75 C 199.71875 41.8375 199.68125 35.90625 202.84375 31.65625 C 204.56875 29.28125 207.8625 30.0375 210.375 29.5625 z "
     id="path3049"
     transform="scale(0.8,0.8)"
     style="fill:#e79d48;fill-opacity:1" />
  <path
     fill="#b25900"
     d=" M 198.47 9.48 C 200.75 7.97 204.24 10.13 203.50 12.91 C 203.45 16.10 198.28 16.46 197.34 13.65 C 196.55 12.27 197.12 10.29 198.47 9.48 Z"
     id="path3051" />
  <path
     fill="#b25900"
     d=" M 223.45 9.30 C 225.68 8.13 228.64 10.33 228.00 12.84 C 227.99 15.93 222.95 16.55 221.93 13.81 C 221.07 12.27 221.62 9.83 223.45 9.30 Z"
     id="path3053" />
  <path
     d="M 143.96875 23.375 C 142.32676 23.416797 140.71875 23.73125 139.21875 24.3125 C 134.66875 25.95 132.0375 30.575 131.1875 35.125 C 130.2125 40.3125 130.3625 46.125 133.1875 50.75 C 137.8 57.825 149.80625 57.71875 154.34375 50.59375 C 158.08125 44.65625 158.5125 36.74375 155.9375 30.28125 C 153.95938 25.5375 148.89473 23.249609 143.96875 23.375 z M 144.125 29.4375 C 146.59766 29.412305 148.9875 31.7 149.34375 34.25 C 150.26875 38.95 150.2375 44.48125 147.25 48.46875 C 144.2625 51.74375 139.2625 48.8 138.8125 44.9375 C 138 40.125 137.7 33.85 141.6875 30.3125 C 142.45625 29.715625 143.30078 29.445898 144.125 29.4375 z "
     transform="scale(0.8,0.8)"
     id="path3065"
     style="fill:#e79d48;fill-opacity:1" />
  <path
     d="M 174.9375 23.375 C 173.37793 23.421484 171.83437 23.715625 170.40625 24.21875 C 165.35625 26.01875 162.54375 31.31875 161.96875 36.40625 C 161.29375 41.76875 161.525 47.96875 165.3125 52.21875 C 170.8875 58.13125 182.0375 56.93125 185.9375 49.65625 C 189.1125 43.56875 189.45625 35.84375 186.53125 29.59375 C 184.43125 25.215625 179.61621 23.235547 174.9375 23.375 z M 175.21875 29.46875 C 177.47988 29.523828 179.6375 31.4 180.125 33.6875 C 181.4375 38.475 181.26875 44.14375 178.40625 48.34375 C 175.83125 51.29375 171.00625 49.6125 170.15625 46 C 168.79375 40.85 168.425 33.75 173 30.0625 C 173.72188 29.63125 174.46504 29.450391 175.21875 29.46875 z "
     transform="scale(0.8,0.8)"
     id="path3067"
     style="fill:#e79d48;fill-opacity:1" />
  <path
     fill="#b25900"
     d=" M 188.66 20.68 C 190.06 19.14 192.30 19.16 194.18 18.69 C 194.22 20.35 194.25 22.01 194.29 23.67 C 192.21 24.17 189.47 24.16 188.46 26.44 C 185.65 31.83 186.30 38.14 185.95 44.00 C 184.21 44.00 182.48 44.00 180.75 44.00 C 180.66 35.83 180.96 27.65 180.54 19.49 C 182.13 19.50 183.71 19.50 185.30 19.50 C 185.41 21.89 185.47 24.29 185.45 26.69 C 186.37 24.62 187.08 22.37 188.66 20.68 Z"
     id="path3069" />
  <path
     fill="#b25900"
     d=" M 236.05 22.04 C 239.36 18.52 244.54 18.77 248.94 19.34 C 248.97 20.91 249.00 22.49 249.03 24.06 C 246.39 23.57 243.44 22.54 240.96 24.13 C 238.36 25.76 237.90 29.15 237.76 31.96 C 237.74 34.82 238.45 38.42 241.35 39.72 C 243.83 40.97 246.44 39.50 248.80 38.71 C 248.77 40.19 248.75 41.67 248.74 43.15 C 244.22 44.98 238.27 45.25 234.90 41.12 C 230.86 35.58 231.51 27.10 236.05 22.04 Z"
     id="path3071" />
  <path
     fill="#b25900"
     d=" M 197.52 37.80 C 197.42 31.70 197.54 25.60 197.50 19.50 C 199.33 19.50 201.16 19.50 203.00 19.50 C 203.05 26.14 202.86 32.80 203.14 39.44 C 203.68 39.79 204.74 40.49 205.27 40.85 C 205.26 41.72 205.24 43.48 205.23 44.35 C 203.54 44.29 201.78 44.61 200.17 44.01 C 198.02 42.75 197.59 40.07 197.52 37.80 Z"
     id="path3073" />
  <path
     fill="#b25900"
     d=" M 222.00 19.50 C 223.83 19.50 225.66 19.50 227.50 19.50 C 227.67 25.91 227.16 32.36 227.74 38.75 C 228.21 39.36 229.17 40.58 229.64 41.19 C 229.70 42.22 229.75 43.25 229.80 44.28 C 226.93 44.79 223.02 44.41 222.42 40.90 C 221.47 33.83 222.25 26.62 222.00 19.50 Z"
     id="path3075" />
  <path
     fill="#b25900"
     d=" M 17.54 31.55 C 18.39 29.90 20.21 29.23 21.99 29.41 C 40.29 29.45 58.60 29.36 76.91 29.45 C 79.04 29.27 80.55 31.21 81.16 33.04 C 80.53 34.37 79.51 35.43 78.57 36.54 C 58.85 36.41 39.13 36.43 19.41 36.54 C 18.40 35.09 15.86 33.41 17.54 31.55 Z"
     id="path3083" />
  <path
     fill="#e79d48"
     d=" M 20.49 39.13 C 39.50 39.12 58.50 39.12 77.51 39.13 C 77.25 42.12 77.49 45.70 74.87 47.77 C 73.08 49.59 70.47 49.85 68.06 49.78 C 55.00 49.70 41.93 49.76 28.87 49.76 C 26.33 49.93 23.80 48.85 22.24 46.84 C 20.44 44.70 20.80 41.72 20.49 39.13 Z"
     id="path3085" />
</svg>
