<?xml version="1.0" encoding="UTF-8" standalone="no"?>
<svg
   xmlns:dc="http://purl.org/dc/elements/1.1/"
   xmlns:cc="http://creativecommons.org/ns#"
   xmlns:rdf="http://www.w3.org/1999/02/22-rdf-syntax-ns#"
   xmlns:svg="http://www.w3.org/2000/svg"
   xmlns="http://www.w3.org/2000/svg"
   xmlns:sodipodi="http://sodipodi.sourceforge.net/DTD/sodipodi-0.dtd"
   xmlns:inkscape="http://www.inkscape.org/namespaces/inkscape"
   width="272pt"
   height="56pt"
   viewBox="0 0 272 56"
   version="1.1"
   id="svg3039"
   inkscape:version="0.48.4 r9939"
   sodipodi:docname="logo.svg">
  <metadata
     id="metadata3091">
    <rdf:RDF>
      <cc:Work
         rdf:about="">
        <dc:format>image/svg+xml</dc:format>
        <dc:type
           rdf:resource="http://purl.org/dc/dcmitype/StillImage" />
      </cc:Work>
    </rdf:RDF>
  </metadata>
  <defs
     id="defs3089" />
  <sodipodi:namedview
     pagecolor="#ffffff"
     bordercolor="#666666"
     borderopacity="1"
     objecttolerance="10"
     gridtolerance="10"
     guidetolerance="10"
     inkscape:pageopacity="0"
     inkscape:pageshadow="2"
     inkscape:window-width="1366"
     inkscape:window-height="705"
     id="namedview3087"
     showgrid="false"
     inkscape:zoom="3.5470588"
     inkscape:cx="170"
     inkscape:cy="35"
     inkscape:window-x="-8"
     inkscape:window-y="-8"
     inkscape:window-maximized="1"
     inkscape:current-layer="svg3039" />
  <path
     fill="#e79d48"
     d=" M 24.11 12.13 C 31.03 5.72 41.15 6.06 49.96 6.19 C 58.35 5.98 68.05 6.22 74.35 12.61 C 78.13 16.34 77.25 22.00 77.34 26.80 C 58.45 26.77 39.55 26.78 20.66 26.80 C 20.69 21.80 19.90 15.81 24.11 12.13 Z"
     id="path3043" />
  <path
     fill="#e79d48"
     d=" M 95.38 9.52 C 97.95 7.44 101.44 8.15 104.47 8.25 C 104.49 9.81 104.50 11.38 104.51 12.94 C 102.76 13.33 100.32 12.39 99.11 14.10 C 98.40 15.71 98.27 17.50 97.92 19.20 C 99.53 19.23 101.14 19.25 102.75 19.26 C 102.75 20.76 102.75 22.25 102.75 23.75 C 101.25 23.75 99.75 23.76 98.26 23.76 C 98.19 30.20 98.35 36.65 98.24 43.09 C 98.19 46.20 97.37 49.74 94.58 51.54 C 92.21 53.21 89.20 52.61 86.51 52.51 C 86.50 51.00 86.49 49.50 86.49 47.99 C 88.54 47.67 91.91 47.89 91.99 44.96 C 92.64 37.93 92.06 30.85 92.25 23.80 C 91.49 23.77 89.97 23.72 89.22 23.70 C 89.22 23.07 89.23 21.83 89.23 21.20 C 90.16 20.58 91.09 19.95 92.01 19.32 C 92.44 15.93 92.38 11.81 95.38 9.52 Z"
     id="path3045" />
  <path
     fill="#b25900"
     d=" M 212.07 10.03 C 214.44 7.72 217.96 8.30 220.94 8.59 C 220.99 9.97 221.03 11.35 221.08 12.74 C 219.17 13.04 216.26 11.92 215.36 14.26 C 214.80 15.93 214.75 17.72 214.52 19.46 C 216.09 19.48 217.67 19.50 219.25 19.51 C 219.25 20.51 219.25 22.50 219.25 23.50 C 217.75 23.50 216.25 23.50 214.75 23.50 C 214.72 30.02 214.81 36.54 214.74 43.05 C 214.70 46.29 213.64 50.01 210.57 51.61 C 208.45 52.95 205.86 52.29 203.52 52.24 C 203.50 50.92 203.47 49.60 203.45 48.28 C 204.86 48.13 206.25 47.90 207.63 47.59 C 209.06 46.67 209.11 44.72 209.23 43.21 C 209.32 36.64 209.20 30.07 209.25 23.51 C 208.50 23.50 207.02 23.50 206.27 23.50 C 206.25 22.98 206.21 21.93 206.19 21.41 C 207.15 20.78 208.11 20.15 209.06 19.52 C 209.43 16.25 209.32 12.37 212.07 10.03 Z"
     id="path3047" />
  <path
     fill="#e79d48"
     d=" M 168.25 8.50 C 170.16 8.50 172.08 8.50 174.00 8.50 C 174.05 17.37 173.92 26.24 174.02 35.10 C 174.00 38.51 176.66 41.14 176.89 44.52 C 173.58 44.93 170.27 44.25 168.80 40.95 C 166.96 43.19 164.41 45.40 161.27 44.70 C 156.64 44.22 154.31 39.32 154.23 35.13 C 153.88 29.89 154.85 23.73 159.40 20.44 C 161.91 18.44 165.27 18.86 168.26 18.79 C 168.24 15.36 168.24 11.93 168.25 8.50 Z"
     id="path3049" />
  <path
     fill="#b25900"
     d=" M 198.47 9.48 C 200.75 7.97 204.24 10.13 203.50 12.91 C 203.45 16.10 198.28 16.46 197.34 13.65 C 196.55 12.27 197.12 10.29 198.47 9.48 Z"
     id="path3051" />
  <path
     fill="#b25900"
     d=" M 223.45 9.30 C 225.68 8.13 228.64 10.33 228.00 12.84 C 227.99 15.93 222.95 16.55 221.93 13.81 C 221.07 12.27 221.62 9.83 223.45 9.30 Z"
     id="path3053" />
  <path
     fill="#ffffff"
     d=" M 40.68 12.32 C 40.92 11.52 41.40 9.90 41.64 9.10 C 42.45 9.68 44.06 10.85 44.86 11.44 C 43.55 12.09 42.13 13.60 40.68 12.32 Z"
     id="path3055" />
  <path
     fill="#ffffff"
     d=" M 53.12 11.54 C 53.86 10.95 55.34 9.77 56.08 9.18 C 56.51 10.11 57.35 11.96 57.77 12.88 C 56.14 12.73 54.57 12.30 53.12 11.54 Z"
     id="path3057" />
  <path
     fill="#ffffff"
     d=" M 34.13 17.99 C 33.88 16.31 36.25 16.76 37.25 16.18 C 37.28 17.39 37.30 18.59 37.32 19.80 C 36.31 19.23 33.59 19.78 34.13 17.99 Z"
     id="path3059" />
  <path
     fill="#ffffff"
     d=" M 48.40 16.51 C 50.57 15.54 51.62 18.76 49.62 19.58 C 47.75 20.86 46.13 16.61 48.40 16.51 Z"
     id="path3061" />
  <path
     fill="#ffffff"
     d=" M 60.71 16.79 C 61.27 16.65 62.38 16.36 62.93 16.22 C 63.36 16.80 64.23 17.96 64.66 18.54 C 63.34 18.97 62.02 19.40 60.69 19.83 C 60.69 18.82 60.70 17.81 60.71 16.79 Z"
     id="path3063" />
  <path
     fill="#e79d48"
     d=" M 111.37 19.44 C 116.17 17.58 122.63 19.17 124.74 24.23 C 126.80 29.40 126.46 35.72 123.47 40.47 C 119.84 46.17 110.23 46.25 106.54 40.59 C 104.28 36.89 104.17 32.25 104.95 28.10 C 105.63 24.46 107.73 20.75 111.37 19.44 Z"
     id="path3065" />
  <path
     fill="#e79d48"
     d=" M 136.33 19.37 C 140.90 17.76 146.98 19.00 149.22 23.67 C 151.56 28.67 151.29 34.85 148.75 39.72 C 145.63 45.54 136.72 46.50 132.26 41.77 C 129.23 38.37 129.03 33.42 129.57 29.13 C 130.03 25.06 132.29 20.81 136.33 19.37 Z"
     id="path3067" />
  <path
     fill="#b25900"
     d=" M 188.66 20.68 C 190.06 19.14 192.30 19.16 194.18 18.69 C 194.22 20.35 194.25 22.01 194.29 23.67 C 192.21 24.17 189.47 24.16 188.46 26.44 C 185.65 31.83 186.30 38.14 185.95 44.00 C 184.21 44.00 182.48 44.00 180.75 44.00 C 180.66 35.83 180.96 27.65 180.54 19.49 C 182.13 19.50 183.71 19.50 185.30 19.50 C 185.41 21.89 185.47 24.29 185.45 26.69 C 186.37 24.62 187.08 22.37 188.66 20.68 Z"
     id="path3069" />
  <path
     fill="#b25900"
     d=" M 236.05 22.04 C 239.36 18.52 244.54 18.77 248.94 19.34 C 248.97 20.91 249.00 22.49 249.03 24.06 C 246.39 23.57 243.44 22.54 240.96 24.13 C 238.36 25.76 237.90 29.15 237.76 31.96 C 237.74 34.82 238.45 38.42 241.35 39.72 C 243.83 40.97 246.44 39.50 248.80 38.71 C 248.77 40.19 248.75 41.67 248.74 43.15 C 244.22 44.98 238.27 45.25 234.90 41.12 C 230.86 35.58 231.51 27.10 236.05 22.04 Z"
     id="path3071" />
  <path
     fill="#b25900"
     d=" M 197.52 37.80 C 197.42 31.70 197.54 25.60 197.50 19.50 C 199.33 19.50 201.16 19.50 203.00 19.50 C 203.05 26.14 202.86 32.80 203.14 39.44 C 203.68 39.79 204.74 40.49 205.27 40.85 C 205.26 41.72 205.24 43.48 205.23 44.35 C 203.54 44.29 201.78 44.61 200.17 44.01 C 198.02 42.75 197.59 40.07 197.52 37.80 Z"
     id="path3073" />
  <path
     fill="#b25900"
     d=" M 222.00 19.50 C 223.83 19.50 225.66 19.50 227.50 19.50 C 227.67 25.91 227.16 32.36 227.74 38.75 C 228.21 39.36 229.17 40.58 229.64 41.19 C 229.70 42.22 229.75 43.25 229.80 44.28 C 226.93 44.79 223.02 44.41 222.42 40.90 C 221.47 33.83 222.25 26.62 222.00 19.50 Z"
     id="path3075" />
  <path
     fill="#ffffff"
     d=" M 113.35 24.25 C 115.81 22.34 119.09 24.68 119.47 27.40 C 120.21 31.16 120.20 35.59 117.81 38.78 C 115.42 41.40 111.40 39.03 111.04 35.94 C 110.39 32.09 110.16 27.08 113.35 24.25 Z"
     id="path3077" />
  <path
     fill="#ffffff"
     d=" M 138.39 24.06 C 140.70 22.68 143.58 24.50 144.10 26.94 C 145.15 30.77 145.01 35.32 142.72 38.68 C 140.66 41.04 136.80 39.68 136.12 36.79 C 135.03 32.67 134.73 27.01 138.39 24.06 Z"
     id="path3079" />
  <path
     fill="#ffffff"
     d=" M 162.27 25.32 C 163.65 23.42 166.28 24.02 168.29 23.64 C 167.95 28.64 169.07 34.55 165.68 38.73 C 164.30 40.68 161.31 39.45 160.83 37.39 C 159.78 33.46 159.74 28.72 162.27 25.32 Z"
     id="path3081" />
  <path
     fill="#b25900"
     d=" M 17.54 31.55 C 18.39 29.90 20.21 29.23 21.99 29.41 C 40.29 29.45 58.60 29.36 76.91 29.45 C 79.04 29.27 80.55 31.21 81.16 33.04 C 80.53 34.37 79.51 35.43 78.57 36.54 C 58.85 36.41 39.13 36.43 19.41 36.54 C 18.40 35.09 15.86 33.41 17.54 31.55 Z"
     id="path3083" />
  <path
     fill="#e79d48"
     d=" M 20.49 39.13 C 39.50 39.12 58.50 39.12 77.51 39.13 C 77.25 42.12 77.49 45.70 74.87 47.77 C 73.08 49.59 70.47 49.85 68.06 49.78 C 55.00 49.70 41.93 49.76 28.87 49.76 C 26.33 49.93 23.80 48.85 22.24 46.84 C 20.44 44.70 20.80 41.72 20.49 39.13 Z"
     id="path3085" />
</svg>
